<svg width="64" height="64" viewBox="0 0 64 64" fill="none" xmlns="http://www.w3.org/2000/svg">
<path d="M58 35C58 49.82 46.82 61 32 61C16.45 61 6.00001 50.55 6.00001 35C5.9181 29.7422 6.61911 24.5015 8.08001 19.45C8.19936 19.0327 8.45123 18.6656 8.79758 18.404C9.14394 18.1424 9.56598 18.0006 10 18C10.4205 17.9996 10.8305 18.1318 11.1716 18.3778C11.5127 18.6237 11.7675 18.9709 11.9 19.37C12 19.6 12.65 21 15 21C19.84 21 20 11.1 20 11C20.0002 10.6596 20.0872 10.3249 20.2529 10.0275C20.4186 9.73018 20.6575 9.48004 20.9469 9.30079C21.2363 9.12155 21.5666 9.01914 21.9067 9.00325C22.2467 8.98737 22.5852 9.05853 22.89 9.21001C24.1789 9.79266 25.587 10.0633 27 10C29.44 10 31.06 7.61001 32 5.54001C32.418 4.57025 32.7525 3.56661 33 2.54001C33.1056 2.09255 33.3621 1.69513 33.7264 1.41464C34.0906 1.13415 34.5404 0.987726 35 1.00001C35.4779 0.993469 35.9424 1.1583 36.3093 1.46464C36.6761 1.77099 36.9212 2.19859 37 2.67001C37.68 6.91001 40.86 19 46 19C50.12 19 51 15.1 51 14.66C51.0746 14.2199 51.2943 13.8174 51.6241 13.5166C51.9539 13.2157 52.3749 13.0339 52.82 13C53.2464 12.9717 53.6706 13.0807 54.0305 13.3111C54.3904 13.5414 54.6671 13.881 54.82 14.28C58 22.64 58 31.94 58 35Z" fill="#414042"/>
<path d="M58 35C58 49.82 46.82 61 32 61V5.54001C32.418 4.57025 32.7525 3.56661 33 2.54001C33.1056 2.09255 33.3621 1.69513 33.7264 1.41464C34.0906 1.13415 34.5404 0.987726 35 1.00001C35.4779 0.993469 35.9424 1.1583 36.3093 1.46464C36.6761 1.77099 36.9212 2.19859 37 2.67001C37.68 6.91001 40.86 19 46 19C50.12 19 51 15.1 51 14.66C51.0746 14.2199 51.2943 13.8174 51.6241 13.5166C51.9539 13.2157 52.3749 13.0339 52.82 13C53.2464 12.9717 53.6706 13.0807 54.0305 13.3111C54.3904 13.5414 54.6671 13.881 54.82 14.28C58 22.64 58 31.94 58 35Z" fill="#231F20"/>
</svg>
